<svg width="528" height="99" viewBox="0 0 528 99" fill="none" xmlns="http://www.w3.org/2000/svg">
<path d="M6.03223 71.6934C5.0153 71.6934 4.50684 71.2196 4.50684 70.272C4.50684 69.7635 4.86507 69.2897 5.58154 68.8506C5.90511 68.6195 6.2749 68.3768 6.69092 68.1226C7.13005 67.8452 7.46517 67.5101 7.69629 67.1172C7.88118 66.7474 7.97363 66.3545 7.97363 65.9385V27.4224C7.97363 26.2205 7.39583 25.4232 6.24023 25.0303C5.08464 24.6143 4.50684 23.9556 4.50684 23.0542C4.50684 22.1066 5.03841 21.6328 6.10156 21.6328H39.1401V31.2358C39.1401 32.1834 38.6086 32.6572 37.5454 32.6572C36.9676 32.6572 36.2858 32.0794 35.5 30.9238C34.3675 29.3522 33.4315 28.1851 32.6919 27.4224C31.9523 26.6366 31.0278 26.2437 29.9185 26.2437H15.9819V43.6816H23.0542C23.7244 43.6816 24.3369 43.3581 24.8916 42.7109C25.2845 42.2487 25.6312 41.7056 25.9316 41.0815C26.2552 40.4344 26.7983 40.1108 27.561 40.1108C28.6011 40.1108 29.1211 40.5846 29.1211 41.5322V50.3379C29.1211 51.2855 28.6011 51.7593 27.561 51.7593C26.7521 51.7593 26.1743 51.401 25.8276 50.6846C25.481 49.9681 25.0881 49.3672 24.6489 48.8818C24.1867 48.4196 23.6551 48.1885 23.0542 48.1885H15.9819V65.9385C15.9819 66.4932 16.0975 66.9554 16.3286 67.3252C16.5597 67.6488 16.8486 67.9261 17.1953 68.1572C17.5651 68.3883 17.9233 68.6079 18.27 68.8159C19.0327 69.2782 19.4141 69.7635 19.4141 70.272C19.4141 70.4569 19.391 70.6418 19.3447 70.8267C18.998 71.4045 18.5011 71.6934 17.854 71.6934H6.03223ZM59.5596 37.1641C64.3438 37.349 68.3652 39.1632 71.624 42.6069C74.8828 46.0506 76.5469 50.1414 76.6162 54.8794V55.0874C76.6162 59.8716 74.9175 63.9277 71.52 67.2559C68.0301 70.6533 63.7544 72.4214 58.6929 72.5601H58.1382C53.4233 72.5601 49.3672 70.8267 45.9697 67.3599C42.526 63.87 40.8042 59.7445 40.8042 54.9834V54.8794C40.8273 49.6561 42.8034 45.2533 46.7324 41.6709C47.264 41.1855 47.992 40.7811 48.9165 40.4575C49.841 40.134 51.1584 39.6602 52.8687 39.0361C53.8856 38.6663 55.0065 38.2619 56.2314 37.8228C57.5026 37.3836 58.5658 37.1641 59.4209 37.1641H59.5596ZM58.7622 40.8735H58.3809C56.0003 40.8735 53.9202 42.0638 52.1406 44.4443C50.1761 47.1022 49.1938 50.3957 49.1938 54.3247C49.1938 58.2537 50.1414 61.6281 52.0366 64.4478C53.9549 67.2443 56.1968 68.7004 58.7622 68.8159H59.2129C61.5703 68.8159 63.6273 67.6257 65.3838 65.2451C67.3483 62.6104 68.3306 59.3285 68.3306 55.3994C68.3306 51.4704 67.3714 48.1076 65.4531 45.311C63.5348 42.4914 61.3045 41.0122 58.7622 40.8735ZM92.7715 50.3726V65.9385C92.7715 67.1403 93.3377 67.9492 94.4702 68.3652C95.6258 68.7581 96.2036 69.3937 96.2036 70.272C96.2036 71.2196 95.6836 71.6934 94.6436 71.6934H82.8911C81.828 71.6934 81.2964 71.2196 81.2964 70.272C81.2964 69.3937 81.8742 68.7581 83.0298 68.3652C84.1854 67.9492 84.7632 67.1403 84.7632 65.9385V43.751C84.7632 42.5954 84.1854 41.8096 83.0298 41.3936C81.8742 40.9775 81.2964 40.3188 81.2964 39.4175C81.2964 38.4699 81.8164 37.9961 82.8564 37.9961C84.2894 37.9268 85.7223 37.6956 87.1553 37.3027C88.6113 36.9098 90.4834 36.332 92.7715 35.5693V40.0762L96.377 38.7241C98.1566 38.0539 99.5549 37.5454 100.572 37.1987C100.988 37.0832 101.45 37.0254 101.958 37.0254C102.929 37.0254 104.316 37.3374 106.119 37.9614L105.252 47.8071H102.167C101.265 44.4328 99.7629 42.7456 97.6597 42.7456C97.4285 42.7456 97.209 42.7572 97.001 42.7803C95.5911 42.9421 94.5511 43.7394 93.8809 45.1724C93.2106 46.5822 92.8408 48.3156 92.7715 50.3726ZM126.399 47.8071L114.335 27.6997C113.873 27.0063 113.075 26.313 111.943 25.6196C111.342 25.3192 110.741 25.0534 110.14 24.8223C109.539 24.5911 109.031 24.3485 108.615 24.0942C108.268 23.9093 107.991 23.6782 107.783 23.4009C107.621 23.1466 107.54 22.904 107.54 22.6729V22.4995C107.632 21.9217 108.037 21.6328 108.753 21.6328H120.506C120.945 21.6328 121.349 21.7484 121.719 21.9795C122.043 22.2106 122.309 22.4648 122.517 22.7422C122.655 22.9733 122.725 23.1929 122.725 23.4009C122.725 23.7013 122.597 24.0018 122.343 24.3022C122.181 24.5103 122.008 24.7183 121.823 24.9263C121.638 25.1112 121.534 25.2961 121.511 25.481V25.6543C121.511 26.0472 121.661 26.4632 121.962 26.9023L132.882 44.2017L141.099 31.7212C141.723 30.7736 142.081 29.9647 142.173 29.2944C142.196 29.2251 142.208 29.1442 142.208 29.0518C142.208 28.4508 141.965 27.6535 141.48 26.6597L139.989 23.6782L145.605 21.2168C145.906 21.1012 146.195 21.0435 146.472 21.0435C147.119 21.0435 147.651 21.3555 148.067 21.9795L150.182 25.5156C150.482 26.0472 150.632 26.5788 150.632 27.1104C150.632 28.0579 150.182 28.994 149.28 29.9185C148.078 31.1896 146.796 32.8075 145.432 34.772L136.21 48.2231C135.841 48.7778 135.598 49.5983 135.482 50.6846C135.367 51.7477 135.309 52.7762 135.309 53.77V65.9385C135.309 67.1403 135.887 67.9492 137.042 68.3652C138.198 68.7581 138.776 69.3937 138.776 70.272C138.776 71.2196 138.244 71.6934 137.181 71.6934H125.429C124.366 71.6934 123.834 71.2196 123.834 70.272C123.834 69.3937 124.412 68.7581 125.567 68.3652C126.723 67.9492 127.301 67.1403 127.301 65.9385V51.1353C127.301 49.8872 127 48.7778 126.399 47.8071ZM168.348 37.1641C173.132 37.349 177.153 39.1632 180.412 42.6069C183.671 46.0506 185.335 50.1414 185.404 54.8794V55.0874C185.404 59.8716 183.706 63.9277 180.308 67.2559C176.818 70.6533 172.542 72.4214 167.481 72.5601H166.926C162.211 72.5601 158.155 70.8267 154.758 67.3599C151.314 63.87 149.592 59.7445 149.592 54.9834V54.8794C149.615 49.6561 151.591 45.2533 155.521 41.6709C156.052 41.1855 156.78 40.7811 157.705 40.4575C158.629 40.134 159.946 39.6602 161.657 39.0361C162.674 38.6663 163.795 38.2619 165.02 37.8228C166.291 37.3836 167.354 37.1641 168.209 37.1641H168.348ZM167.55 40.8735H167.169C164.788 40.8735 162.708 42.0638 160.929 44.4443C158.964 47.1022 157.982 50.3957 157.982 54.3247C157.982 58.2537 158.93 61.6281 160.825 64.4478C162.743 67.2443 164.985 68.7004 167.55 68.8159H168.001C170.358 68.8159 172.415 67.6257 174.172 65.2451C176.136 62.6104 177.119 59.3285 177.119 55.3994C177.119 51.4704 176.16 48.1076 174.241 45.311C172.323 42.4914 170.093 41.0122 167.55 40.8735ZM223.643 65.9385C223.643 67.1403 224.221 67.9492 225.376 68.3652C226.532 68.7581 227.11 69.3937 227.11 70.272C227.11 71.2196 226.578 71.6934 225.515 71.6934H217.091C216.12 71.6934 215.635 71.312 215.635 70.5493V69.4053C215.196 69.5671 214.479 69.8444 213.485 70.2373C212.492 70.6071 211.556 70.9422 210.677 71.2427C208.482 71.9823 206.217 72.4676 203.882 72.6987C203.513 72.7218 203.166 72.7334 202.842 72.7334C200.693 72.7334 198.671 72.0285 196.775 70.6187C193.771 68.3306 192.269 63.5464 192.269 56.2661V43.751C192.269 42.5954 191.691 41.8096 190.535 41.3936C189.38 40.9775 188.802 40.3188 188.802 39.4175C188.802 38.4699 189.322 37.9961 190.362 37.9961C191.795 37.9268 193.228 37.6956 194.661 37.3027C196.117 36.9098 197.989 36.332 200.277 35.5693V56.2661C200.277 61.189 201.259 64.598 203.224 66.4932C204.402 67.6488 205.824 68.2266 207.488 68.2266C208.482 68.2266 209.603 68.0186 210.851 67.6025C211.29 67.4639 211.902 67.2443 212.688 66.9438C213.474 66.6434 214.132 66.3892 214.664 66.1812C214.803 66.1349 214.999 66.0656 215.253 65.9731L215.635 65.8345V43.751C215.635 42.5954 215.057 41.8096 213.901 41.3936C212.746 40.9775 212.168 40.3188 212.168 39.4175C212.168 38.4699 212.688 37.9961 213.728 37.9961C215.161 37.9268 216.594 37.6956 218.027 37.3027C219.483 36.9098 221.355 36.332 223.643 35.5693V65.9385ZM244.929 65.9385C244.929 67.1403 245.507 67.9492 246.663 68.3652C247.818 68.7581 248.396 69.3937 248.396 70.272C248.396 71.2196 247.876 71.6934 246.836 71.6934H235.083C234.02 71.6934 233.489 71.2196 233.489 70.272C233.489 69.3937 234.055 68.7581 235.188 68.3652C236.32 67.9492 236.886 67.1403 236.886 65.9385L236.956 27.4224C236.956 26.2437 236.378 25.4463 235.222 25.0303C234.067 24.6143 233.489 23.9556 233.489 23.0542C233.489 22.1066 234.02 21.6328 235.083 21.6328H255.538C258.034 21.6328 260.645 22.0835 263.373 22.9849C266.123 23.8631 268.261 25.6081 269.786 28.2197C270.942 30.2767 271.52 32.7266 271.52 35.5693C271.473 38.2965 270.688 40.758 269.162 42.9536C267.822 44.8488 265.926 46.2586 263.477 47.1831C261.027 48.1076 258.796 48.5698 256.786 48.5698H244.929V65.9385ZM244.929 25.897V44.7563H252.105C253.608 44.7563 255.11 44.5483 256.612 44.1323C258.138 43.6932 259.444 42.9305 260.53 41.8442C262.24 40.2033 263.095 37.9961 263.095 35.2227C263.095 32.5648 262.205 30.3576 260.426 28.6011C258.554 26.7983 256.011 25.897 252.799 25.897H244.929ZM297.104 69.0586L288.784 72.1094C287.929 72.4098 287.201 72.5601 286.6 72.5601H285.144C281.585 72.3752 278.557 70.9653 276.061 68.3306C273.542 65.6496 272.109 62.4023 271.762 58.5889C271.67 57.6182 271.624 56.6706 271.624 55.7461C271.624 54.5212 271.704 53.3309 271.866 52.1753C272.167 50.1183 272.964 48.0729 274.258 46.0391C274.882 44.9528 275.969 43.8203 277.517 42.6416C278.095 42.2487 278.73 41.902 279.424 41.6016C281.296 40.9082 283.156 40.2148 285.005 39.5215C286.877 38.8281 288.75 38.1348 290.622 37.4414C291.13 37.2565 291.615 37.1641 292.078 37.1641H292.286C293.857 37.2334 295.752 37.6263 297.971 38.3428C298.202 38.4121 298.341 38.4699 298.387 38.5161C298.849 38.701 299.439 38.909 300.155 39.1401C300.34 39.2095 300.514 39.2441 300.675 39.2441C300.814 39.2441 300.93 39.2095 301.022 39.1401C301.461 38.7703 301.762 38.4699 301.923 38.2388C302.224 37.8459 302.628 37.6494 303.137 37.6494C303.391 37.6494 303.622 37.6956 303.83 37.7881C304.685 38.0885 305.113 38.5277 305.113 39.1055V65.9385C305.113 67.1403 305.691 67.9492 306.846 68.3652C308.002 68.7581 308.58 69.3937 308.58 70.272C308.58 71.2196 308.048 71.6934 306.985 71.6934H298.561C297.59 71.6934 297.104 71.312 297.104 70.5493V69.0586ZM297.104 44.583C296.365 43.8896 295.267 43.1963 293.811 42.5029C292.378 41.8096 291.13 41.4398 290.067 41.3936H289.963C289.639 41.3936 289.293 41.4629 288.923 41.6016C288.091 41.902 287.259 42.214 286.427 42.5376C285.618 42.8381 284.797 43.1385 283.965 43.439C283.526 43.6239 283.18 43.855 282.925 44.1323C281.585 45.5653 280.683 47.3102 280.221 49.3672C279.828 50.985 279.632 52.5798 279.632 54.1514C279.632 54.6367 279.655 55.1452 279.701 55.6768C279.955 58.8893 280.822 61.4894 282.301 63.4771C283.734 65.4878 285.514 66.7821 287.64 67.3599C288.426 67.591 289.223 67.7065 290.032 67.7065C290.286 67.7065 290.541 67.695 290.795 67.6719C291.211 67.6257 291.731 67.4985 292.355 67.2905C292.887 67.1056 293.719 66.8052 294.851 66.3892C295.984 65.95 296.735 65.6611 297.104 65.5225V44.583ZM337.181 63.4077V44.583C336.441 43.8896 335.343 43.1963 333.887 42.5029C332.454 41.8096 331.206 41.4398 330.143 41.3936H330.039C329.715 41.3936 329.369 41.4629 328.999 41.6016C328.167 41.902 327.335 42.214 326.503 42.5376C325.694 42.8381 324.874 43.1385 324.042 43.439C323.602 43.6239 323.256 43.855 323.001 44.1323C321.661 45.5653 320.76 47.3102 320.297 49.3672C319.904 50.985 319.708 52.5798 319.708 54.1514C319.708 54.6367 319.731 55.1452 319.777 55.6768C320.032 58.8893 320.898 61.4894 322.377 63.4771C323.81 65.4878 325.59 66.7821 327.716 67.3599C328.502 67.591 329.299 67.7065 330.108 67.7065C330.363 67.7065 330.617 67.695 330.871 67.6719C331.287 67.6257 331.807 67.4985 332.431 67.2905C332.963 67.1056 333.783 66.8052 334.893 66.3892C336.025 65.9731 336.776 65.6958 337.146 65.5571V63.4077H337.181ZM337.146 69.0586L328.86 72.1094C328.005 72.4098 327.277 72.5601 326.676 72.5601H325.22C321.661 72.3752 318.633 70.9653 316.137 68.3306C313.618 65.6496 312.185 62.4023 311.838 58.5889C311.746 57.6182 311.7 56.6706 311.7 55.7461C311.7 54.5212 311.781 53.3309 311.942 52.1753C312.243 50.1183 313.04 48.0729 314.334 46.0391C314.958 44.9528 316.045 43.8203 317.593 42.6416C318.171 42.2487 318.807 41.902 319.5 41.6016C321.372 40.9082 323.233 40.2148 325.082 39.5215C326.954 38.8281 328.826 38.1348 330.698 37.4414C331.206 37.2565 331.692 37.1641 332.154 37.1641H332.362C333.933 37.2334 335.829 37.6263 338.047 38.3428C338.278 38.4121 338.417 38.4699 338.463 38.5161C338.926 38.701 339.515 38.909 340.231 39.1401C340.416 39.2095 340.59 39.2441 340.751 39.2441C340.89 39.2441 341.006 39.2095 341.098 39.1401C341.537 38.7703 341.838 38.4699 342 38.2388C342.3 37.8459 342.704 37.6494 343.213 37.6494C343.467 37.6494 343.698 37.6956 343.906 37.7881C344.761 38.0885 345.189 38.5277 345.189 39.1055V77.2402C345.189 81.2386 344.588 83.7578 343.386 84.7979C342.184 85.861 340.52 86.7739 338.394 87.5366L328.86 91.1074C328.005 91.4079 327.277 91.5581 326.676 91.5581C326.052 91.5581 325.555 91.5465 325.186 91.5234C321.673 91.4079 318.633 89.9749 316.068 87.2246C314.75 85.7917 313.641 83.908 312.74 81.5737C315.213 80.603 317.801 79.6208 320.505 78.627C321.083 80.2679 321.707 81.5391 322.377 82.4404C323.833 84.4281 325.613 85.7223 327.716 86.3232C328.502 86.5312 329.276 86.6353 330.039 86.6353C330.34 86.6353 330.617 86.6237 330.871 86.6006C331.31 86.5544 331.83 86.4388 332.431 86.2539C332.685 86.1383 333.032 85.9997 333.471 85.8379C333.933 85.6761 334.396 85.5028 334.858 85.3179C335.713 84.9019 336.314 83.908 336.661 82.3364C337.007 80.7648 337.181 79.7248 337.181 79.2163L337.146 69.0586ZM350.424 51.7593C351.094 47.3449 352.885 43.7856 355.797 41.0815C358.709 38.3774 362.546 37.0023 367.307 36.9561H367.446C372.276 36.9561 375.986 38.3428 378.574 41.1162C381.093 43.8896 382.353 47.4604 382.353 51.8286C382.33 52.7762 382.284 53.5505 382.214 54.1514C382.145 54.7523 381.394 55.0527 379.961 55.0527H358.744C358.813 58.2191 359.703 60.9694 361.414 63.3037C363.147 65.6149 365.285 67.0247 367.827 67.5332C368.567 67.695 369.318 67.7759 370.081 67.7759C372.114 67.7759 374.229 67.175 376.425 65.9731C377.904 65.1873 378.956 64.7944 379.58 64.7944C379.903 64.7944 380.204 64.8869 380.481 65.0718C380.712 65.3029 380.828 65.5687 380.828 65.8691C380.828 66.262 380.654 66.7705 380.308 67.3945C380.007 68.0186 379.753 68.4346 379.545 68.6426C379.36 68.8506 379.187 69.0355 379.025 69.1973C376.321 71.5316 372.681 72.6987 368.104 72.6987C361.726 72.6525 356.953 70.6187 353.787 66.5972C351.337 63.5002 350.112 59.8485 350.112 55.6421C350.112 54.394 350.216 53.0998 350.424 51.7593ZM358.779 51.1353H375.281C375.281 48.8703 374.668 46.6053 373.443 44.3403C372.38 42.3758 370.404 41.3936 367.515 41.3936H367.134C364.245 41.486 362.142 42.5838 360.824 44.687C359.53 46.7671 358.848 48.9165 358.779 51.1353ZM392.407 62.333C395.527 62.333 397.087 63.5695 397.087 66.0425V68.8853C397.087 71.3351 395.527 72.5601 392.407 72.5601C389.287 72.5601 387.727 71.3351 387.727 68.8853V66.0425C387.727 63.5695 389.287 62.333 392.407 62.333ZM472.178 50.3726V65.9385C472.178 67.1403 472.744 67.9492 473.876 68.3652C475.032 68.7581 475.61 69.3937 475.61 70.272C475.61 71.2196 475.09 71.6934 474.05 71.6934H462.297C461.234 71.6934 460.703 71.2196 460.703 70.272C460.703 69.3937 461.28 68.7581 462.436 68.3652C463.592 67.9492 464.169 67.1403 464.169 65.9385V43.751C464.169 42.5954 463.592 41.8096 462.436 41.3936C461.28 40.9775 460.703 40.3188 460.703 39.4175C460.703 38.4699 461.223 37.9961 462.263 37.9961C463.696 37.9268 465.129 37.6956 466.562 37.3027C468.018 36.9098 469.89 36.332 472.178 35.5693V40.0762L475.783 38.7241C477.563 38.0539 478.961 37.5454 479.978 37.1987C480.394 37.0832 480.856 37.0254 481.365 37.0254C482.335 37.0254 483.722 37.3374 485.525 37.9614L484.658 47.8071H481.573C480.671 44.4328 479.169 42.7456 477.066 42.7456C476.835 42.7456 476.615 42.7572 476.407 42.7803C474.997 42.9421 473.957 43.7394 473.287 45.1724C472.617 46.5822 472.247 48.3156 472.178 50.3726ZM512.947 63.4077V44.583C512.208 43.8896 511.11 43.1963 509.654 42.5029C508.221 41.8096 506.973 41.4398 505.91 41.3936H505.806C505.482 41.3936 505.135 41.4629 504.766 41.6016C503.934 41.902 503.102 42.214 502.27 42.5376C501.461 42.8381 500.64 43.1385 499.808 43.439C499.369 43.6239 499.022 43.855 498.768 44.1323C497.428 45.5653 496.526 47.3102 496.064 49.3672C495.671 50.985 495.475 52.5798 495.475 54.1514C495.475 54.6367 495.498 55.1452 495.544 55.6768C495.798 58.8893 496.665 61.4894 498.144 63.4771C499.577 65.4878 501.357 66.7821 503.483 67.3599C504.269 67.591 505.066 67.7065 505.875 67.7065C506.129 67.7065 506.383 67.695 506.638 67.6719C507.054 67.6257 507.574 67.4985 508.198 67.2905C508.729 67.1056 509.55 66.8052 510.659 66.3892C511.792 65.9731 512.543 65.6958 512.913 65.5571V63.4077H512.947ZM512.913 69.0586L504.627 72.1094C503.772 72.4098 503.044 72.5601 502.443 72.5601H500.987C497.428 72.3752 494.4 70.9653 491.904 68.3306C489.385 65.6496 487.952 62.4023 487.605 58.5889C487.513 57.6182 487.466 56.6706 487.466 55.7461C487.466 54.5212 487.547 53.3309 487.709 52.1753C488.009 50.1183 488.807 48.0729 490.101 46.0391C490.725 44.9528 491.811 43.8203 493.36 42.6416C493.938 42.2487 494.573 41.902 495.267 41.6016C497.139 40.9082 498.999 40.2148 500.848 39.5215C502.72 38.8281 504.592 38.1348 506.464 37.4414C506.973 37.2565 507.458 37.1641 507.92 37.1641H508.128C509.7 37.2334 511.595 37.6263 513.814 38.3428C514.045 38.4121 514.184 38.4699 514.23 38.5161C514.692 38.701 515.282 38.909 515.998 39.1401C516.183 39.2095 516.356 39.2441 516.518 39.2441C516.657 39.2441 516.772 39.2095 516.865 39.1401C517.304 38.7703 517.604 38.4699 517.766 38.2388C518.067 37.8459 518.471 37.6494 518.979 37.6494C519.234 37.6494 519.465 37.6956 519.673 37.7881C520.528 38.0885 520.956 38.5277 520.956 39.1055V77.2402C520.956 81.2386 520.355 83.7578 519.153 84.7979C517.951 85.861 516.287 86.7739 514.161 87.5366L504.627 91.1074C503.772 91.4079 503.044 91.5581 502.443 91.5581C501.819 91.5581 501.322 91.5465 500.952 91.5234C497.439 91.4079 494.4 89.9749 491.834 87.2246C490.517 85.7917 489.408 83.908 488.506 81.5737C490.979 80.603 493.568 79.6208 496.272 78.627C496.85 80.2679 497.474 81.5391 498.144 82.4404C499.6 84.4281 501.38 85.7223 503.483 86.3232C504.269 86.5312 505.043 86.6353 505.806 86.6353C506.106 86.6353 506.383 86.6237 506.638 86.6006C507.077 86.5544 507.597 86.4388 508.198 86.2539C508.452 86.1383 508.799 85.9997 509.238 85.8379C509.7 85.6761 510.162 85.5028 510.625 85.3179C511.48 84.9019 512.081 83.908 512.427 82.3364C512.774 80.7648 512.947 79.7248 512.947 79.2163L512.913 69.0586Z" fill="white"/>
<path d="M431.496 34.7515L425.212 40.9658C422.156 44.0328 417.364 44.0328 414.408 41.1124L425.068 30.5808M425.039 30.6098C431.411 24.3149 442.63 23.4365 449.002 29.7313C455.374 36.0263 455.374 46.2322 449.002 52.527M431.6 34.8151L447.705 50.7249C449.14 52.1424 449.077 54.4407 447.642 55.858C446.207 57.2757 443.881 57.2753 442.446 55.8578M431.612 45.1909L442.459 55.9068C443.894 57.3247 443.832 59.6227 442.397 61.0402C440.962 62.4579 438.635 62.4576 437.201 61.04L426.354 50.324M437.214 61.089C438.649 62.5066 438.586 64.8051 437.151 66.2222C435.716 67.6398 433.39 67.6395 431.955 66.2222M404.72 53.851L403.247 52.3951C396.875 46.1001 395.986 35.0159 402.357 28.7213C408.729 22.4262 419.06 22.4263 425.432 28.7213L425.88 29.166M427.3 73.9673C425.865 75.3849 423.539 75.3229 422.104 73.9053C420.669 72.4878 420.669 70.1897 422.104 68.7722L425.75 65.1705C427.184 63.753 429.511 63.8149 430.946 65.2325C432.381 66.65 432.38 68.9481 430.946 70.3655L427.3 73.9673ZM422.054 68.7852C420.619 70.2028 418.293 70.1409 416.858 68.7234C415.423 67.3058 415.424 65.0075 416.858 63.5901L420.504 59.9885C421.939 58.5709 424.266 58.6329 425.7 60.0502C427.135 61.4678 427.135 63.7661 425.7 65.1837L422.054 68.7852ZM416.809 63.6032C415.374 65.0208 413.048 64.9587 411.613 63.5413C410.178 62.1236 410.178 59.8256 411.613 58.4081L415.259 54.8065C416.694 53.3886 419.02 53.4507 420.455 54.8683C421.89 56.2859 421.889 58.5842 420.455 60.0016L416.809 63.6032ZM411.563 58.4211C410.128 59.8385 407.802 59.7769 406.367 58.3593C404.932 56.9417 404.933 54.6434 406.367 53.2259L410.013 49.6241C411.448 48.2067 413.774 48.2686 415.209 49.6862C416.644 51.1037 416.644 53.4021 415.209 54.8194L411.563 58.4211Z" stroke="white" stroke-width="4" stroke-linecap="round"/>
</svg>
